HIERARCHY
ROOT ui
{
	 OFFSET 0 0 0
	 CHANNELS 3 XPosition YPosition Z Position
	 EndSite
	 {
	 OFFSET 0 -1 0
	 }
}
ROOT li
{
	 OFFSET 0 0 0
	 CHANNELS 3 XPosition YPosition Z Position
	 EndSite
	 {
	 OFFSET 0 -1 0
	 }
}
ROOT ul
{
	 OFFSET 0 0 0
	 CHANNELS 3 XPosition YPosition Z Position
	 EndSite
	 {
	 OFFSET 0 -1 0
	 }
}
ROOT ll
{
	 OFFSET 0 0 0
	 CHANNELS 3 XPosition YPosition Z Position
	 EndSite
	 {
	 OFFSET 0 -1 0
	 }
}
ROOT tt
{
	 OFFSET 0 0 0
	 CHANNELS 3 XPosition YPosition Z Position
	 EndSite
	 {
	 OFFSET 0 -1 0
	 }
}
ROOT tb
{
	 OFFSET 0 0 0
	 CHANNELS 3 XPosition YPosition Z Position
	 EndSite
	 {
	 OFFSET 0 -1 0
	 }
}
ROOT td
{
	 OFFSET 0 0 0
	 CHANNELS 3 XPosition YPosition Z Position
	 EndSite
	 {
	 OFFSET 0 -1 0
	 }
}
ROOT v
{
	 OFFSET 0 0 0
	 CHANNELS 3 XPosition YPosition Z Position
	 EndSite
	 {
	 OFFSET 0 -1 0
	 }
}
ROOT bn
{
	 OFFSET 0 0 0
	 CHANNELS 3 XPosition YPosition Z Position
	 EndSite
	 {
	 OFFSET 0 -1 0
	 }
}
MOTION
Frames: 32
Frame Time: 0.002
-0.0029463210105895995	-8.165199756622315E-4	0		0.48497930908203124	-2.433634765625	0		-1.1467623291015625	-0.03800595474243164	0		-0.6759949951171875	-2.537536865234375	0		1.3529710693359376	-0.8254309692382813	0		3.043507080078125	-0.289638427734375	0		4.47258251953125	0.04865419387817383	0		5.5988544921875	0.2403865509033203	0		-0.2451127166748047	5.87926123046875	0		
-0.006061607837677002	0.004075138092041015	0		0.5393629760742188	-2.4395771484375	0		-1.138039306640625	-0.043636028289794924	0		-0.7074334716796875	-2.534338134765625	0		1.3580672607421875	-0.8212977905273438	0		3.041301513671875	-0.2939136962890625	0		4.47845166015625	0.054639175415039064	0		5.605017578125	0.2234813690185547	0		-0.412387939453125	5.8548515625	0		
-0.030301828384399414	0.004321003913879394	0		0.46704605102539065	-2.42535595703125	0		-1.132203125	-0.040217109680175785	0		-0.682206298828125	-2.55011181640625	0		1.3838211669921876	-0.8354979858398438	0		3.058956298828125	-0.30449911499023435	0		4.47407666015625	0.0488327407836914	0		5.609244140625	0.2396124725341797	0		-0.3640428466796875	5.86973828125	0		
0.012471795082092285	0.00845700454711914	0		0.5513655395507813	-2.430750732421875	0		-1.118330322265625	-0.030921436309814452	0		-0.6757084350585938	-2.5465537109375	0		1.3701573486328125	-0.8110183715820313	0		3.06628466796875	-0.27088418579101564	0		4.47985888671875	0.05587532806396484	0		5.61047802734375	0.24206040954589844	0		-0.3829667663574219	5.8737666015625	0		
-0.026982421875	0.003958390951156616	0		0.4888548583984375	-2.419708740234375	0		-1.0538839111328124	-0.04342603302001953	0		-0.6553749389648438	-2.54820458984375	0		1.3689486083984375	-0.814743896484375	0		3.050712890625	-0.2868963623046875	0		4.4934814453125	0.057795658111572265	0		5.6116591796875	0.24451199340820312	0		-0.37825006103515624	5.8594111328125	0		
-0.02052648162841797	-0.0012793550491333008	0		0.5487619018554688	-2.439642578125	0		-1.12730908203125	-0.04168042373657226	0		-0.6891017456054688	-2.54696728515625	0		1.3686671142578124	-0.8174785766601562	0		3.05233056640625	-0.2861910400390625	0		4.49190673828125	0.05295453643798828	0		5.61277783203125	0.24694081115722658	0		-0.3783580322265625	5.8591533203125	0		
-0.019083908081054687	-0.0014194689989089967	0		0.5010017395019531	-2.430846435546875	0		-1.12991748046875	-0.046059867858886716	0		-0.645203369140625	-2.562944580078125	0		1.3703326416015624	-0.8172391357421875	0		3.05972509765625	-0.2935845031738281	0		4.4913193359375	0.05307851028442383	0		5.6138271484375	0.24932655334472656	0		-0.24520436096191406	5.877833984375	0		
0.0033342020511627195	0.003135763883590698	0		0.5309672241210938	-2.432260986328125	0		-1.1245009765625	-0.04253608703613281	0		-0.6730424194335938	-2.55377099609375	0		1.3769984130859374	-0.8100719604492187	0		3.05949951171875	-0.2698662719726562	0		4.48164990234375	0.054315200805664064	0		5.61773486328125	0.2636549377441406	0		-0.3834864501953125	5.87377392578125	0		
0.010667203903198242	0.008948085784912109	0		0.5079031372070313	-2.4268466796875	0		-1.1110965576171874	-0.03309949111938477	0		-0.63620361328125	-2.557566650390625	0		1.378446533203125	-0.8098215942382813	0		3.05966015625	-0.2791751708984375	0		4.49696875	0.06113652801513672	0		5.61571142578125	0.25390435791015625	0		-0.35065289306640623	5.87808056640625	0		
0.01064533805847168	-0.0021106910705566404	0		0.5345510864257812	-2.432173828125	0		-1.12209228515625	-0.04326341247558594	0		-0.67142822265625	-2.55624609375	0		1.3797841796875	-0.80956884765625	0		3.070973876953125	-0.27166928100585935	0		4.49011376953125	0.06325511932373047	0		5.616544921875	0.25606790161132814	0		-0.39913482666015626	5.863634765625	0		
-0.01923539733886719	0.003287166118621826	0		0.5341129760742187	-2.434081787109375	0		-1.04606298828125	-0.045673561096191403	0		-0.6379152221679687	-2.563923828125	0		1.381009033203125	-0.809315673828125	0		3.061975830078125	-0.27788726806640623	0		4.49114111328125	0.0642100830078125	0		5.61730517578125	0.258132080078125	0		-0.24619770812988281	5.8772431640625	0		
-0.013370176315307618	-0.001828631043434143	0		0.5075678405761719	-2.433604736328125	0		-1.1200924072265626	-0.04385127639770508	0		-0.6734175415039062	-2.562564208984375	0		1.382118408203125	-0.8090645141601562	0		3.054002685546875	-0.27515185546875	0		4.48287939453125	0.05224845123291016	0		5.61798974609375	0.26008642578125	0		-0.3656449279785156	5.86787060546875	0		
0.013462264060974121	-0.002224776029586792	0		0.5129483642578125	-2.42858642578125	0		-1.1192491455078124	-0.04409304428100586	0		-0.6591837158203125	-2.569903076171875	0		1.3831109619140625	-0.80881787109375	0		3.0697470703125	-0.28479159545898436	0		4.4867890625	0.059056900024414063	0		5.6257001953125	0.25648370361328127	0		-0.36496978759765625	5.86676171875	0		
-0.0047050099372863766	0.0050367841720581055	0		0.5171698608398437	-2.424544677734375	0		-1.1063697509765624	-0.03447007751464844	0		-0.6529089965820313	-2.56409912109375	0		1.390085205078125	-0.8016634521484375	0		3.08288037109375	-0.2594222412109375	0		4.480595703125	0.06594837188720704	0		5.62987158203125	0.27017477416992186	0		-0.39838040161132815	5.86015380859375	0		
-0.007116552829742432	0.0020850939750671387	0		0.5670475463867187	-2.435134765625	0		-1.117871337890625	-0.04447351837158203	0		-0.6328668212890625	-2.56446142578125	0		1.387789794921875	-0.8053901977539063	0		3.0634990234375	-0.2626397399902344	0		4.494228515625	0.06749680328369141	0		5.61959521484375	0.26518023681640623	0		-0.3665861511230469	5.86765087890625	0		
-0.010640229225158691	-0.0018406009674072266	0		0.5139884643554687	-2.430290771484375	0		-1.117333740234375	-0.04461404800415039	0		-0.6689502563476563	-2.5630234375	0		1.3853956298828125	-0.8081295776367188	0		3.06099951171875	-0.267138427734375	0		4.4837646484375	0.0693129653930664	0		5.61998388671875	0.26659259033203125	0		-0.38103323364257813	5.85781201171875	0		
-0.010204648017883301	-0.001811177968978882	0		0.5646157836914063	-2.438876220703125	0		-1.1168927001953124	-0.04472382736206055	0		-0.6593433227539063	-2.574198486328125	0		1.3889732666015624	-0.8049657592773437	0		3.06635888671875	-0.27479010009765625	0		4.48110986328125	0.06394917297363281	0		5.62030322265625	0.2678536376953125	0		-0.381334716796875	5.85779443359375	0		
-0.009859269142150878	-0.00177252197265625	0		0.5242152099609375	-2.439220703125	0		-1.11250244140625	-0.04185935592651367	0		-0.656692626953125	-2.57225732421875	0		1.389405517578125	-0.804775634765625	0		3.059005126953125	-0.25431201171875	0		4.4794208984375	0.06250123596191406	0		5.6276591796875	0.2635383605957031	0		-0.36748959350585936	5.8676025390625	0		
0.019441429138183593	8.838859796524048E-4	0		0.5697633666992188	-2.434730712890625	0		-1.1041424560546875	-0.03502157974243164	0		-0.6541687622070312	-2.570296875	0		1.395835205078125	-0.7976830444335937	0		3.0751552734375	-0.26420016479492187	0		4.48478515625	0.07088867950439454	0		5.627853515625	0.26449664306640625	0		-0.38669241333007814	5.87287109375	0		
-0.009407138824462891	-0.0016733490228652954	0		0.5182186889648438	-2.4279404296875	0		-1.1160833740234375	-0.044889102935791014	0		-0.62085791015625	-2.575732666015625	0		1.38999072265625	-0.8044446411132813	0		3.063578857421875	-0.24775848388671876	0		4.48496875	0.0712764892578125	0		5.62381005859375	0.2827435913085937	0		-0.3821420593261719	5.85783056640625	0		
0.01671357536315918	-0.001961016058921814	0		0.566346923828125	-2.438489013671875	0		-1.1159578857421875	-0.04489587020874024	0		-0.6616199951171875	-2.57816455078125	0		1.390160888671875	-0.80430419921875	0		3.07550244140625	-0.2636780090332031	0		4.4869013671875	0.057573326110839845	0		5.62098193359375	0.2713929443359375	0		-0.3823631896972656	5.85786669921875	0		
-0.009220526695251465	-0.0015522199869155884	0		0.5145882568359375	-2.432711669921875	0		-1.115892333984375	-0.04488153076171875	0		-0.6264862060546875	-2.581593994140625	0		1.3902596435546875	-0.804179931640625	0		3.063790771484375	-0.24732203674316405	0		4.48514794921875	0.07185878753662109	0		5.62520556640625	0.2527579345703125	0		-0.38255667114257813	5.85791357421875	0		
0.01678709411621094	-0.0018289920091629028	0		0.5167109375	-2.429655517578125	0		-1.097816650390625	-0.04008624649047852	0		-0.6484363403320312	-2.584254150390625	0		1.3963858642578124	-0.7971505737304687	0		3.07559521484375	-0.263319580078125	0		4.494943359375	0.05593051910400391	0		5.6210390625	0.27233004760742185	0		-0.3865509948730469	5.87102099609375	0		
8.814349770545959E-4	0.008453436851501465	0		0.52179345703125	-2.423641357421875	0		-1.091921630859375	-0.04511285400390625	0		-0.6094201049804687	-2.58370947265625	0		1.398413330078125	-0.7930810546875	0		3.07090478515625	-0.23712989807128906	0		4.48798291015625	0.06217343902587891	0		5.631748046875	0.27920004272460935	0		-0.36677487182617186	5.864822265625	0		
0.016662696838378906	-0.0016814980506896973	0		0.542603515625	-2.4328388671875	0		-1.10387353515625	-0.03488697052001953	0		-0.6614177856445312	-2.57795166015625	0		1.3962806396484375	-0.7969696044921875	0		3.053584716796875	-0.2548081359863281	0		4.485029296875	0.07231720733642578	0		5.62512744140625	0.25365188598632815	0		-0.41607931518554686	5.85154345703125	0		
-0.009465140342712402	-0.0012595609426498413	0		0.5424661254882812	-2.432761962890625	0		-1.116134765625	-0.04464572525024414	0		-0.62862451171875	-2.583306640625	0		1.39310888671875	-0.7998553466796875	0		3.04756005859375	-0.24666017150878905	0		4.48182080078125	0.06642249298095704	0		5.620859375	0.27292446899414063	0		-0.24884983825683593	5.8764150390625	0		
-0.00964011287689209	-0.0011788400411605834	0		0.5402376098632813	-2.434660888671875	0		-1.1163101806640625	-0.04455258560180664	0		-0.6539188232421875	-2.5898876953125	0		1.3929249267578125	-0.7997903442382812	0		3.07516845703125	-0.2629825134277344	0		4.489619140625	0.06434722900390626	0		5.6207333984375	0.2729561767578125	0		-0.3822380676269531	5.8562587890625	0		
-0.009859349250793457	-0.001096840977668762	0		0.5160418090820312	-2.429271728515625	0		-1.0925323486328125	-0.04476791381835937	0		-0.6531593627929687	-2.587807373046875	0		1.3957303466796875	-0.796774169921875	0		3.06622314453125	-0.24184005737304687	0		4.4894013671875	0.06434632110595703	0		5.6247509765625	0.25375497436523436	0		-0.41641256713867186	5.85179833984375	0		
-0.00302811598777771	0.005892317771911621	0		0.5177471313476563	-2.427228759765625	0		-1.1046607666015624	-0.034500244140625	0		-0.6514580078125	-2.585735595703125	0		1.3975025634765625	-0.7927532348632812	0		3.03986572265625	-0.24848805236816407	0		4.488314453125	0.07732978057861328	0		5.62330712890625	0.28484286499023437	0		-0.4023974304199219	5.8617041015625	0		
-0.010418549537658691	-9.318100214004517E-4	0		0.567265625	-2.435826171875	0		-1.0299798583984374	-0.03638198471069336	0		-0.6209292602539063	-2.59304541015625	0		1.395127685546875	-0.7966859741210938	0		3.06565087890625	-0.24184306335449218	0		4.48395263671875	0.07233130645751953	0		5.6272958984375	0.27072079467773436	0		-0.38258856201171876	5.85653271484375	0		
-0.01074756145477295	-8.508129715919494E-4	0		0.5388703002929688	-2.4343916015625	0		-1.1052900390625	-0.03426720809936523	0		-0.6682215576171875	-2.583318115234375	0		1.391732177734375	-0.799612060546875	0		3.05522119140625	-0.2487318878173828	0		4.4836259765625	0.07226078796386719	0		5.6199365234375	0.27249639892578126	0		-0.24943873596191407	5.87685205078125	0		
0.010845449447631836	-0.005066212177276611	0		0.5623613891601562	-2.439653564453125	0		-1.117775390625	-0.04398797607421875	0		-0.6248445434570312	-2.596802978515625	0		1.3913515625	-0.7995847778320313	0		3.048954833984375	-0.24168545532226562	0		4.48508984375	0.05815030670166016	0		5.6268056640625	0.2703212890625	0		-0.3828589477539063	5.85671826171875	0		
